<svg width="807" height="708" viewBox="0 0 807 708" fill="none" xmlns="http://www.w3.org/2000/svg">
<path d="M880.172 56.6454C949.065 128.414 1112.49 65.2379 1109.97 197.564C1107.02 352.507 999.601 418.672 1075.69 527.574C1105.27 664.656 794.221 710.216 488.481 707.918C182.741 705.619 -11.5507 735.947 37.5782 474.179C95.7104 323.268 78.8003 275.287 73.0173 209.685C67.2343 144.082 107.444 -40.7027 344.233 79.3055C581.022 199.314 705.711 -125.103 880.172 56.6454Z" fill="#479D75"/>
<path d="M248.205 654.315C250.048 654.296 251.371 652.11 250.907 650.108L243.304 616.598H233L244.034 651.981C244.475 654.315 247.037 654.327 248.205 654.315Z" fill="#C2C2C2"/>
<path d="M421.358 654.315C423.099 654.296 424.348 652.11 423.913 650.108L416.731 616.598H407L417.423 651.981C417.842 654.315 420.256 654.327 421.358 654.315Z" fill="#C2C2C2"/>
<path d="M83.6397 654.315C81.899 654.296 80.6499 652.11 81.0882 650.108L88.2668 616.598H98L87.578 651.981C87.1648 654.315 84.7448 654.327 83.6397 654.315Z" fill="#436E8E"/>
<path d="M57 411.177L66.3236 550.475L70.9966 564.621C70.9966 564.621 211.389 617.591 215.098 617.591H421.172C422.963 617.591 423.857 616.285 424.601 614.733C426.191 611.401 444.215 556.318 393.544 537.439C365.211 526.877 337.981 553.195 306.403 543.071C301.867 541.61 298.718 537.859 296.361 532.489C282.297 500.531 296.042 411.445 208.332 411.136L57 411.177Z" fill="#EFEFEF"/>
<path d="M68.8294 411.186L67 550.252L102.329 562.007L212.154 545.761C212.154 545.761 215.915 545.487 319 545.446C304.98 513.537 295.989 411.444 208.547 411.136L68.8294 411.186Z" fill="#EFEFEF"/>
<g opacity="0.3">
<path opacity="0.3" d="M225.285 503.408C223.752 503.165 222.193 502.125 221.114 500.633C219.228 498.019 219.276 494.751 221.225 493.342C221.627 493.062 222.081 492.865 222.561 492.763C223.041 492.661 223.536 492.655 224.018 492.747C225.548 492.994 227.107 494.034 228.186 495.526C230.09 498.14 230.024 501.408 228.078 502.817C227.705 503.085 227.282 503.274 226.834 503.374C226.325 503.485 225.798 503.497 225.285 503.408ZM221.793 494.125C220.276 495.222 220.324 497.887 221.901 500.068C222.831 501.357 224.155 502.248 225.434 502.454C225.79 502.525 226.156 502.524 226.511 502.452C226.867 502.379 227.204 502.237 227.503 502.034C229.018 500.937 228.97 498.272 227.396 496.091C226.462 494.802 225.142 493.911 223.86 493.705C223.469 493.636 223.069 493.644 222.682 493.727C222.363 493.8 222.062 493.935 221.796 494.125H221.793Z" fill="#E08B65"/>
</g>
<path d="M48.2026 422.402L88.4701 603.75C90.0594 613.076 96.3024 619.667 103.467 619.575L246.425 617.784C256.133 617.664 263.997 607.252 264 594.415C264 574.402 260.399 544.644 236.231 536.531C178.255 517.064 155.264 553.123 131.544 542.983C110.708 534.074 129.319 429.608 78.5685 412.154C69.754 409.122 45.5452 407.543 48.2026 422.402Z" fill="#DFDFDF"/>
<path d="M44.4057 434.637L73.2579 603.767C74.8491 613.083 81.0995 619.667 88.2728 619.575L231.401 617.786C241.123 617.666 248.994 607.265 249 594.441C249 574.449 244.411 547.17 221.198 536.618C182.712 519.118 140.131 553.193 116.387 543.063C95.5224 534.163 111.416 436.265 63.3477 412.37C52.6133 407.039 41.7483 419.809 44.4057 434.637Z" fill="#C2C2C2"/>
<path d="M243.099 582.851H243.14C243.258 582.845 243.374 582.817 243.482 582.766C243.589 582.715 243.685 582.643 243.765 582.554C243.845 582.465 243.906 582.362 243.947 582.249C243.987 582.136 244.005 582.016 243.999 581.896C243.595 576.432 242.479 571.047 240.678 565.881C236.748 554.535 230.04 546.357 221.281 542.241C221.174 542.19 221.058 542.161 220.94 542.156C220.821 542.151 220.703 542.17 220.592 542.211C220.481 542.252 220.379 542.315 220.292 542.396C220.204 542.477 220.134 542.575 220.084 542.684C220.034 542.793 220.006 542.91 220.001 543.03C219.996 543.15 220.014 543.27 220.055 543.382C220.095 543.495 220.157 543.599 220.238 543.687C220.318 543.775 220.414 543.847 220.521 543.897C240.637 553.36 242.185 581.696 242.198 581.98C242.209 582.215 242.308 582.437 242.476 582.599C242.644 582.761 242.867 582.851 243.099 582.851Z" fill="white"/>
<path d="M76.1096 435.95C76.2611 435.949 76.4099 435.909 76.5424 435.834C76.6447 435.775 76.7348 435.697 76.8076 435.603C76.8803 435.509 76.9342 435.401 76.9661 435.286C76.9981 435.171 77.0076 435.05 76.994 434.931C76.9803 434.812 76.9439 434.697 76.8867 434.592C76.4761 433.832 66.7016 416.035 57.3378 418.279C47.8603 420.543 49.0387 433.088 49.0545 433.215C49.0792 433.455 49.1963 433.676 49.3799 433.828C49.5636 433.98 49.7988 434.051 50.0338 434.026C50.2688 434.001 50.4844 433.881 50.6331 433.693C50.7818 433.505 50.8515 433.264 50.8268 433.024C50.6857 431.041 50.8488 429.048 51.3101 427.116C52.2863 423.236 54.4503 420.85 57.7453 420.058C61.8523 419.071 66.373 423.223 69.4343 426.883C71.6412 429.565 73.6128 432.441 75.3261 435.478C75.4033 435.621 75.5167 435.741 75.6546 435.824C75.7924 435.907 75.9496 435.951 76.1096 435.95Z" fill="white"/>
<path d="M38 634.474C38 634.474 38.5685 635.823 39.8104 638.053C39.848 638.114 39.8819 638.177 39.912 638.242C43.4443 644.413 47.8083 650.063 52.8799 655.031C55.1476 657.268 58.2189 659.012 61.8269 660.307L61.8999 660.335C62.6717 660.607 63.4657 660.866 64.282 661.096C75.8969 664.442 91.8407 663.723 104.361 660.086L106.514 659.418C107.588 659.064 108.626 658.693 109.633 658.297C112.547 657.182 115.264 655.603 117.678 653.618C117.951 653.388 118.215 653.158 118.472 652.925C127.155 645.074 127 634.465 127 634.465L38 634.474Z" fill="#DFDFDF"/>
<path d="M35 618.466V630.224C35 637.502 56.4856 643.398 83 643.398C109.514 643.398 131 637.502 131 630.224V618.466C131 614.772 118.625 611.606 101.078 610.298C95.4991 609.877 89.3989 609.65 83.0064 609.65C56.4697 609.644 35 613.59 35 618.466Z" fill="#C2C2C2"/>
<path d="M35 618.58C35 619.301 35.4514 619.996 36.3067 620.662C41.3426 624.596 60.3289 627.517 83 627.517C89.3584 627.517 95.4149 627.287 100.956 626.861C118.572 625.55 131 622.33 131 618.577C131 614.823 118.623 611.63 101.074 610.306C95.4944 609.88 89.3934 609.65 83 609.65C56.4725 609.647 35 613.643 35 618.58Z" fill="#060633"/>
<path d="M79.5891 499.581C84.2246 502.381 86.4671 501.699 87.5324 499.829C88.5977 497.959 88.0827 495.605 83.4504 492.805C75.0079 487.701 69 488.621 69 488.621C69 488.621 71.025 494.401 79.5891 499.581Z" fill="white"/>
<path d="M80.519 534.428C84.0068 538.688 86.3056 538.791 87.8877 537.353C89.4699 535.916 89.7204 533.487 86.2485 529.227C79.907 521.468 74 520.319 74 520.319C74 520.319 74.0983 526.557 80.519 534.428Z" fill="white"/>
<path d="M82.1463 624.539L83.1534 624.451C83.1534 624.296 81.8826 608.649 87.1184 585.727C91.9634 564.58 103.509 532.736 131 501.132L130.237 500.467C102.597 532.245 90.9913 564.274 86.1272 585.56C80.8501 608.611 82.1336 624.381 82.1463 624.539Z" fill="#9C9C9C"/>
<path d="M103.177 540.17L104 539.627C84.8809 508.804 96.4027 471.381 96.5194 471.004L95.5982 470.69C95.4723 471.07 83.8031 508.939 103.177 540.17Z" fill="#9C9C9C"/>
<path d="M118.802 523.296C129.111 523.296 136.901 518.226 137 518.167L136.432 517.341C136.333 517.406 126.349 523.89 114.163 521.933L114 522.917C115.587 523.17 117.193 523.297 118.802 523.296Z" fill="#9C9C9C"/>
<path d="M84.1016 601.71C104.838 599.388 121.64 589.423 134.047 572.095C134.34 571.655 134.658 571.232 135 570.828C134.97 570.851 134.935 570.868 134.898 570.877L134.581 569.947C134.298 570.04 134.12 570.279 133.222 571.534C120.989 588.62 104.425 598.443 84 600.733L84.1016 601.71Z" fill="#2F1A31"/>
<path d="M113.865 590.791L114.814 590.526C111.326 577.239 119.913 557.664 120 557.468L119.106 557.044C117.501 560.828 116.169 564.727 115.12 568.711C113.519 574.835 111.988 583.636 113.865 590.791Z" fill="#2F1A31"/>
<path d="M132.064 495.152C126.732 500.135 126.279 502.921 127.677 504.529C129.074 506.137 131.797 505.955 137.126 500.968C146.835 491.887 149 484.586 149 484.586C149 484.586 141.915 485.927 132.064 495.152Z" fill="white"/>
<path d="M134.05 515.163C127.609 518.211 126.388 520.691 127.241 522.634C128.094 524.578 130.7 525.246 137.141 522.201C148.872 516.65 153 510.448 153 510.448C153 510.448 145.953 509.533 134.05 515.163Z" fill="white"/>
<path d="M116.583 554.508C114.065 559.376 114.869 561.615 116.782 562.606C118.696 563.598 120.995 562.929 123.513 558.084C128.091 549.214 126.845 543.148 126.845 543.148C126.845 543.148 121.233 545.506 116.583 554.508Z" fill="#2F1A31"/>
<path d="M108.487 507.665C107.234 512.855 108.559 514.784 110.655 515.259C112.752 515.733 114.826 514.58 116.079 509.39C118.369 499.94 115.667 494.512 115.667 494.512C115.667 494.512 110.803 498.081 108.487 507.665Z" fill="white"/>
<path d="M100.059 585.222C100.364 590.431 102.223 591.889 104.408 591.778C106.593 591.667 108.269 590.024 107.964 584.816C107.406 575.324 103.186 570.94 103.186 570.94C103.186 570.94 99.4943 575.592 100.059 585.222Z" fill="#2F1A31"/>
<path d="M129.699 570.543C126.243 574.574 126.54 576.834 128.176 578.143C129.812 579.452 132.167 579.313 135.622 575.281C141.919 567.937 142 562.007 142 562.007C142 562.007 136.086 563.09 129.699 570.543Z" fill="#2F1A31"/>
<path d="M93.8242 465.706C92.1109 472.639 93.2856 475.092 95.3623 475.576C97.4391 476.059 99.6326 474.388 101.346 467.47C104.468 454.841 102.212 447.861 102.212 447.861C102.212 447.861 96.9945 452.893 93.8242 465.706Z" fill="white"/>
<path d="M82 625.856C82 625.856 108.104 527.537 134.271 535.687C160.437 543.838 102.316 597.658 95.6177 626.524L82 625.856Z" fill="#EFEFEF"/>
<path d="M86 621.448C86 621.448 126.236 542.48 151.347 554.275C176.457 566.069 110.421 601.176 99.5825 624.539L86 621.448Z" fill="#DFDFDF"/>
<path d="M93.0308 623.546C106.939 592.367 143.631 565.171 144 564.893L143.332 563.992C142.96 564.264 106.033 591.636 92 623.091L93.0308 623.546Z" fill="#EFEFEF"/>
<path d="M2.36904 553.307C2.59876 553.87 2.83486 554.434 3.08691 555.001C4.76443 558.749 6.8795 562.286 9.38815 565.539C12.116 569.081 12.6808 572.932 12.4798 576.812C12.4798 576.92 12.4798 577.028 12.4638 577.13C12.1033 582.902 10.1443 588.719 11.2195 593.627C11.2993 593.975 11.3886 594.319 11.5003 594.656C12.3617 597.357 14.3047 599.753 18.1716 601.664C31.1251 608.035 33.1925 607.532 34.3475 613.131C34.4177 613.45 34.4815 613.819 34.5485 614.199C34.7271 615.266 34.8994 616.527 35.1132 618.047C35.0699 618.6 35.179 619.154 35.4287 619.65C35.6784 620.146 36.0592 620.564 36.5298 620.859C41.0284 624.252 56.6108 626.88 76.0123 627.415L77.0811 627.443C79.1421 627.494 81.2511 627.517 83.3919 627.517C89.7729 627.517 95.8508 627.297 101.412 626.88C102.797 623.293 104.101 617.381 101.53 610.797C100.439 608.072 98.8846 605.555 96.9356 603.359C85.3381 590.006 76.0186 592.35 78.1978 568.724C78.2212 568.461 78.2467 568.19 78.2743 567.912C78.2966 567.692 78.319 567.466 78.3413 567.24C81.0437 542.015 47.2435 552.905 38.7791 544.404C30.3147 535.902 24.5781 526.342 9.37221 530.088C-1.31279 532.732 -1.65099 543.113 2.36904 553.307Z" fill="#EFEFEF"/>
<path d="M5 532.998C16.3337 543.024 26.9951 553.79 36.9146 565.227L37.7564 566.212C50.5146 581.131 59.2986 594.36 65.2234 604.738C65.3982 605.057 65.5634 605.344 65.7317 605.637C72.1363 617.014 75.0367 624.826 75.9358 627.488L77 627.517C75.7896 623.831 69.2803 605.835 50.6322 580.729C50.4289 580.445 50.216 580.165 49.9968 579.881C39.4243 565.769 25.0491 549.466 5.66396 532.23L5 532.998Z" fill="#DFDFDF"/>
<path d="M58.0346 573.918C71.7122 573.421 77.7513 568.959 78 568.77L77.3986 567.962C77.3388 568.006 71.3249 572.424 58 572.908L58.0346 573.918Z" fill="#DFDFDF"/>
<path d="M49.3714 580.866C55.0856 578.819 59.7751 573.022 62.929 564.105C64.3916 559.907 65.4201 555.583 66 551.196L64.952 551.089C64.9255 551.331 62.1397 575.204 49 579.915L49.3714 580.866Z" fill="#DFDFDF"/>
<path d="M35.4279 565.977C37.0176 565.977 37.9714 565.892 38 565.889L37.8983 564.889C37.7011 564.908 18.0399 566.686 2.67084 553.074L2 553.826C14.3836 564.795 29.4888 565.977 35.4279 565.977Z" fill="#DFDFDF"/>
<path d="M12.1459 577.888C19.2382 576.911 23.7083 573.834 26.2107 571.438C28.9303 568.818 29.9579 566.447 30 566.349L29.0438 565.977C29.0049 566.066 24.9854 575.13 12 576.924L12.1459 577.888Z" fill="#DFDFDF"/>
<path d="M39.9363 614.613C54.9723 614.613 65.8761 604.636 66 604.52L65.3394 603.695C65.206 603.821 51.7008 616.159 34.1652 613.01L34 614.083C35.9615 614.436 37.9472 614.614 39.9363 614.613Z" fill="#DFDFDF"/>
<path d="M55.1344 610.643L56 610.122C52.9735 605.448 45.9138 599.169 29.4764 595.799C23.3976 594.572 17.2117 593.893 11 593.769V594.746C11.3366 594.746 44.9712 594.948 55.1344 610.643Z" fill="#DFDFDF"/>
<path d="M104.831 660.271C100.25 659.877 94.9329 659.257 89.2625 658.297C88.4979 658.17 87.727 658.035 86.9529 657.896C70.9993 654.967 52.717 649.269 40.172 638.179C40.1118 638.132 40.0543 638.081 40 638.027L40.0605 637.979L40.7391 637.442C58.8971 653.626 89.444 658.28 107 659.599L104.831 660.271Z" fill="#C2C2C2"/>
<path d="M64.4505 660.272C64.5267 660.272 64.6029 660.272 64.6822 660.272C72.8556 660.036 80.9898 659.252 89 657.931L88.781 657.294C88.0784 657.405 87.3864 657.513 86.705 657.616C76.7125 659.114 68.4532 659.62 62 659.648L64.4505 660.272Z" fill="#C2C2C2"/>
<path d="M71 634.465C79.5232 640.795 93.9085 648.406 117.215 653.323C117.485 653.097 117.746 652.87 118 652.641C115.789 652.179 113.659 651.696 111.611 651.19C110.585 650.939 109.571 650.677 108.586 650.416C91.2536 645.81 79.8276 639.719 72.4969 634.465H71Z" fill="#C2C2C2"/>
<path d="M95.1127 634.465C97.8846 639.709 102.905 646.024 111.932 650.636L112 650.672L111.434 651.338C110.52 650.87 109.643 650.386 108.804 649.887C102.427 646.157 97.2957 640.812 94 634.465H95.1127Z" fill="#C2C2C2"/>
<path d="M408.488 604.674C408.394 604.637 357.745 516.614 350.911 508.332C350.344 507.647 349.613 507.115 348.785 506.784C347.957 506.453 347.058 506.335 346.172 506.439L332.038 508.113L315.436 543.767L343.099 527.776C340.361 546.57 375.898 574.486 388.084 584.685C388.38 584.929 388.622 585.231 388.795 585.572C388.968 585.914 389.068 586.286 389.09 586.668C389.111 587.049 389.052 587.43 388.918 587.788C388.784 588.146 388.576 588.473 388.309 588.747L383.444 593.804C391.432 601.838 400.631 607.001 411.054 609.389L408.488 604.674Z" fill="url(#paint0_linear)"/>
<path d="M386.255 591.058C386.255 591.058 383.149 592.054 382.097 594.799C381.87 595.449 381.864 596.154 382.079 596.808C382.294 597.461 382.719 598.027 383.288 598.418C388.403 602.074 405.271 613.796 413.054 616.095C413.201 616.137 413.357 616.14 413.505 616.104C413.653 616.068 413.79 615.995 413.901 615.891C414.012 615.787 414.094 615.656 414.139 615.511C414.183 615.366 414.189 615.211 414.155 615.064C413.746 613.268 412.465 609.686 408.299 604.438L408.676 605.189C408.779 605.395 408.814 605.628 408.774 605.854C408.734 606.081 408.622 606.288 408.454 606.447C408.286 606.605 408.072 606.706 407.842 606.734C407.612 606.762 407.38 606.716 407.178 606.603C401.973 603.687 391.366 597.301 386.255 591.058Z" fill="url(#paint1_linear)"/>
<path d="M388.764 626.278C388.678 626.225 381.078 608.057 380.988 608C374.032 565.904 357.025 529.851 352.012 520.363C351.596 519.58 350.989 518.912 350.247 518.423C349.504 517.933 348.648 517.636 347.76 517.56L333.576 516.342L310.046 547.926L340.398 537.821C333.883 555.692 362.995 590.161 372.853 602.586C373.09 602.884 373.262 603.228 373.36 603.595C373.458 603.962 373.479 604.346 373.422 604.721C373.364 605.097 373.23 605.457 373.028 605.779C372.825 606.101 372.558 606.379 372.243 606.595L366.449 610.567C372.632 620.043 380.608 626.948 390.306 631.376L388.764 626.278Z" fill="url(#paint2_linear)"/>
<path d="M369.768 608.479C369.768 608.479 366.523 608.829 364.935 611.323C364.576 611.911 364.422 612.6 364.496 613.284C364.57 613.968 364.868 614.608 365.344 615.108C369.612 619.694 383.734 634.58 390.891 638.394C391.027 638.465 391.178 638.499 391.331 638.494C391.483 638.489 391.632 638.445 391.762 638.365C391.892 638.285 391.999 638.174 392.073 638.041C392.146 637.908 392.183 637.758 392.18 637.606C392.152 635.771 391.62 632.001 388.612 626.026L388.825 626.839C388.883 627.061 388.869 627.295 388.783 627.508C388.698 627.721 388.546 627.902 388.35 628.023C388.154 628.145 387.924 628.201 387.694 628.184C387.463 628.166 387.245 628.077 387.069 627.927C382.584 624.004 373.5 615.62 369.768 608.479Z" fill="url(#paint3_linear)"/>
<path d="M404.625 587.76C401.38 604.085 375.112 604.231 363.568 603.492C362.149 603.397 360.774 602.966 359.559 602.232C358.344 601.499 357.324 600.486 356.587 599.28C356.387 598.963 356.212 598.631 356.063 598.288L355.858 597.83L353.927 593.504L353.272 592.041L333.56 547.91C333.56 547.91 275.177 557.171 259.05 547.91C242.922 538.649 264.529 513.824 264.529 513.824C264.529 513.824 333.012 503.933 348.39 505.424C360.708 506.614 389.336 558.633 400.279 579.348L400.975 580.668C401.294 581.278 401.597 581.846 401.875 582.387L402.62 583.812C403.913 586.335 404.625 587.76 404.625 587.76Z" fill="url(#paint4_linear)"/>
<path d="M322.315 484.075C322.315 484.075 323.706 496.667 328.408 499.132C319.749 504.977 315.583 507.95 315.583 507.95L312.719 490.781L322.315 484.075Z" fill="#F78000"/>
<path d="M267.197 509.709C267.197 509.709 254.364 528.649 253.312 537.289C252.261 545.928 256.86 548.917 270.291 550.018C310.251 553.3 329.951 541.411 329.951 541.411C332.684 524.112 331.481 522.646 354.311 513.239C354.188 511.509 353.565 509.851 352.515 508.464C351.465 507.078 350.034 506.022 348.394 505.424C342.579 503.186 267.197 509.709 267.197 509.709Z" fill="#EB7A00"/>
<path d="M301.911 507.199C301.911 507.199 316.851 493.08 324.205 483.726C326.164 481.231 327.494 478.307 328.084 475.198C328.673 472.089 328.505 468.885 327.593 465.854C324.234 454.623 318.267 442.994 317.723 441.187C316.905 438.413 300.127 438.526 300.127 438.526C300.127 438.526 267.152 459.774 254.2 495.757L268.764 500.225C268.764 500.225 277.358 485.895 285.874 476.78C285.874 476.78 271.142 496.078 270.643 503.994L301.911 507.199Z" fill="#EB7A00"/>
<path d="M362.938 460.964C362.857 460.766 362.721 460.595 362.545 460.471C362.37 460.347 362.162 460.275 361.947 460.265C361.732 460.254 361.519 460.305 361.332 460.41C361.145 460.516 360.992 460.673 360.892 460.862L333.56 510.379L345.652 515.253L372.207 490.801L374.461 488.515L362.938 460.964Z" fill="url(#paint5_linear)"/>
<path d="M359.365 462.113C359.285 461.93 359.156 461.771 358.994 461.653C358.831 461.535 358.639 461.463 358.439 461.443C358.238 461.423 358.036 461.457 357.853 461.54C357.67 461.624 357.512 461.754 357.397 461.918L335.598 492.747L372.207 488.795C370.934 488.226 362.099 468.332 359.365 462.113Z" fill="#BDD0FB"/>
<path d="M344.011 469.696C343.77 469.517 343.468 469.44 343.17 469.481C342.872 469.522 342.602 469.678 342.419 469.916L338.09 475.602L370.533 489.705L344.011 469.696Z" fill="url(#paint6_linear)"/>
<path d="M340.439 470.436C340.312 470.356 340.171 470.301 340.023 470.276C339.875 470.25 339.723 470.254 339.577 470.287C339.43 470.32 339.292 470.381 339.17 470.467C339.047 470.553 338.943 470.663 338.863 470.789L315.166 508.621C315.068 508.778 315.01 508.956 314.998 509.14C314.986 509.325 315.02 509.509 315.097 509.677C315.174 509.845 315.291 509.992 315.439 510.105C315.586 510.217 315.759 510.292 315.943 510.322L345.652 515.233L372.206 490.781L340.439 470.436Z" fill="url(#paint7_linear)"/>
<path d="M369.407 488.99L373.037 485.095L374.461 488.494L372.207 490.781L369.407 488.99Z" fill="url(#paint8_linear)"/>
<path d="M330.36 512.772L319.135 500.631L306.171 504.096C306.171 504.096 291.054 506.423 282.404 504.096L273.753 501.772L254.2 495.757L251.131 504.368C250.753 505.432 250.734 506.589 251.079 507.664C251.423 508.74 252.111 509.674 253.038 510.326C254.732 511.521 256.721 512.833 257.977 513.381C260.551 514.498 317.285 513.734 317.285 513.734L330.36 512.772Z" fill="url(#paint9_linear)"/>
<path d="M402.619 583.824C397.492 592.192 387.773 597.411 374.113 599.048C370.905 599.421 367.678 599.605 364.448 599.596C361.509 599.596 358.829 599.458 356.603 599.279C356.403 598.963 356.228 598.631 356.079 598.288L355.875 597.829C361.897 598.394 367.962 598.342 373.974 597.675C387.765 596.018 397.12 590.884 401.875 582.399L402.619 583.824Z" fill="#A388D2"/>
<path d="M400.974 580.681C395.54 587.663 386.427 592.054 374.113 593.528C370.905 593.899 367.678 594.083 364.448 594.076C360.938 594.073 357.432 593.881 353.943 593.504L353.288 592.041C357.462 592.533 365.495 593.171 373.974 592.151C386.357 590.664 395.172 586.371 400.279 579.36L400.974 580.681Z" fill="#A388D2"/>
<path d="M274.956 461.232C274.956 461.232 287.466 447.474 293.727 455.838C299.988 464.201 269.067 499.705 269.067 499.705C269.067 499.705 287.371 507.073 304.923 504.266C306.024 513.832 306.801 515.233 306.801 515.233C306.801 515.233 249.29 520.887 248.594 510.07C247.898 499.254 260.821 471.821 274.956 461.232Z" fill="#EB7A00"/>
<path d="M311.634 418.546L300.372 439.326C301.117 443.863 312.649 443.993 314.408 441.284C314.581 441.002 314.7 440.691 314.76 440.366L321.496 426.483C321.783 425.126 318.046 420.565 316.815 419.915L312.338 417.551C310.615 416.641 317.805 416.552 311.634 418.546Z" fill="url(#paint10_linear)"/>
<path d="M334.419 413.668C334.419 413.668 335.692 420.691 330.131 429.619C324.569 438.547 319.037 438.148 316.217 434.956C313.398 431.763 310.038 426.471 311.569 417.567C313.099 408.664 332.5 404.716 334.419 413.668Z" fill="url(#paint11_linear)"/>
<path d="M318.304 418.534C318.304 418.534 327.307 406.8 334.219 417.031L334.1 420.565C334.1 420.565 339.268 423.408 338.29 415.167C337.312 406.926 333.789 398.083 323.628 400.894C313.467 403.705 307.513 406.901 306.363 413.891C305.213 420.882 310.983 419.757 310.983 419.757C310.983 419.757 313.185 414.919 315.845 414.59C318.505 414.261 317.543 418.087 317.543 418.087L318.304 418.534Z" fill="url(#paint12_linear)"/>
<path d="M316.234 418.221C316.234 418.221 320.899 412.214 316.643 410.967C312.387 409.72 312.551 416.853 312.833 419.497L316.234 418.221Z" fill="url(#paint13_linear)"/>
<path d="M333.56 408.607C333.56 408.607 320.277 408.944 319.237 417.474C318.198 426.004 310.533 434.696 319.237 436.849C319.237 436.849 322.982 436.467 322.331 439.46C321.68 442.454 322.278 443.14 325.4 448.205C328.523 453.271 337.46 487.605 315.579 487.755C293.698 487.905 294.414 466.041 287.228 463.738C280.043 461.435 262.651 460.285 276.102 446.479C289.553 432.673 297.43 431.52 296.501 425.537C295.572 419.554 302.996 387.181 323.706 392.551C323.706 392.551 343.349 397.921 342.411 407.47C341.474 417.019 338.409 417.827 338.409 417.827C338.409 417.827 336.461 409.716 333.56 408.607Z" fill="#F3D12D"/>
<g opacity="0.7">
<g style="mix-blend-mode:soft-light" opacity="0.7">
<path style="mix-blend-mode:soft-light" opacity="0.7" d="M316.377 454.948C314.507 454.948 311.875 453.754 308.381 451.341C295.331 442.324 300.029 431.032 300.078 430.935C300.11 430.859 300.171 430.799 300.248 430.768C300.325 430.737 300.41 430.737 300.487 430.768C300.562 430.801 300.622 430.862 300.654 430.937C300.686 431.013 300.688 431.098 300.659 431.174C300.467 431.617 296.129 442.092 308.733 450.805C312.952 453.721 315.902 454.818 317.506 454.054C319.11 453.291 319.282 450.805 319.454 448.604C319.492 447.669 319.619 446.74 319.835 445.829C319.843 445.785 319.861 445.744 319.886 445.707C319.912 445.67 319.945 445.639 319.983 445.616C320.022 445.592 320.065 445.577 320.109 445.571C320.154 445.565 320.2 445.569 320.243 445.581C320.286 445.594 320.326 445.615 320.361 445.644C320.395 445.673 320.423 445.708 320.443 445.749C320.463 445.789 320.474 445.833 320.475 445.877C320.477 445.922 320.469 445.967 320.453 446.008C320.254 446.878 320.134 447.765 320.097 448.656C319.908 451.032 319.687 453.73 317.781 454.631C317.343 454.84 316.863 454.948 316.377 454.948Z" fill="url(#paint14_linear)"/>
</g>
<g style="mix-blend-mode:soft-light" opacity="0.7">
<path style="mix-blend-mode:soft-light" opacity="0.7" d="M302.844 426.775C302.759 426.781 302.676 426.753 302.612 426.697C302.549 426.641 302.51 426.563 302.504 426.479C302.499 426.395 302.527 426.312 302.583 426.249C302.639 426.186 302.719 426.147 302.803 426.142C310.91 425.098 318.104 415.082 318.177 414.98C318.228 414.912 318.303 414.865 318.387 414.851C318.471 414.836 318.557 414.855 318.628 414.903C318.69 414.954 318.73 415.027 318.742 415.106C318.753 415.186 318.734 415.267 318.689 415.333C318.386 415.74 311.258 425.679 302.869 426.759L302.844 426.775Z" fill="url(#paint15_linear)"/>
</g>
<g style="mix-blend-mode:soft-light" opacity="0.7">
<path style="mix-blend-mode:soft-light" opacity="0.7" d="M318.574 461.54C314.073 461.54 307.73 456.329 307.431 456.081C307.399 456.055 307.371 456.022 307.352 455.986C307.332 455.949 307.32 455.908 307.316 455.866C307.312 455.825 307.317 455.783 307.329 455.743C307.342 455.703 307.363 455.666 307.39 455.634C307.417 455.602 307.45 455.575 307.487 455.556C307.524 455.536 307.564 455.523 307.606 455.519C307.648 455.515 307.69 455.519 307.73 455.531C307.771 455.543 307.808 455.563 307.841 455.59C307.922 455.655 315.783 462.089 319.835 460.708C320.952 460.326 321.66 459.388 321.999 457.84C322.023 457.763 322.075 457.697 322.145 457.656C322.214 457.615 322.297 457.601 322.377 457.618C322.456 457.635 322.527 457.681 322.573 457.747C322.62 457.813 322.64 457.894 322.63 457.974C322.245 459.737 321.373 460.858 320.043 461.313C319.57 461.468 319.073 461.545 318.574 461.54Z" fill="url(#paint16_linear)"/>
</g>
</g>
<path d="M276.998 490.07C276.926 490.071 276.855 490.048 276.797 490.005C276.76 489.979 276.729 489.946 276.705 489.907C276.681 489.869 276.665 489.826 276.658 489.782C276.65 489.737 276.652 489.692 276.663 489.648C276.673 489.604 276.693 489.562 276.72 489.526L287.085 475.31C287.112 475.273 287.146 475.242 287.185 475.218C287.224 475.194 287.267 475.178 287.312 475.171C287.358 475.164 287.404 475.166 287.448 475.176C287.493 475.187 287.535 475.206 287.572 475.233C287.609 475.259 287.641 475.293 287.665 475.332C287.688 475.37 287.705 475.413 287.712 475.458C287.719 475.503 287.717 475.549 287.707 475.593C287.696 475.637 287.677 475.679 287.65 475.716L277.28 489.932C277.248 489.976 277.205 490.012 277.156 490.036C277.107 490.06 277.053 490.072 276.998 490.07Z" fill="#F78000"/>
<path fill-rule="evenodd" clip-rule="evenodd" d="M558.193 406.335L552.846 459.237H496.521L501.869 406.335H558.193Z" fill="#DCEEFF"/>
<path fill-rule="evenodd" clip-rule="evenodd" d="M558.193 406.335L552.846 459.237H496.521L501.869 406.335H558.193Z" stroke="#DCEEFF" stroke-width="5"/>
<path fill-rule="evenodd" clip-rule="evenodd" d="M556.2 406.335L550.853 459.237H493.482L498.828 406.335H556.2Z" fill="white"/>
<path fill-rule="evenodd" clip-rule="evenodd" d="M556.2 406.335L550.853 459.237H493.482L498.828 406.335H556.2Z" stroke="#DCEEFF" stroke-width="5"/>
<path fill-rule="evenodd" clip-rule="evenodd" d="M544.207 416.451L540.905 449.12H505.476L508.778 416.451H544.207Z" fill="#DCEEFF"/>
<path fill-rule="evenodd" clip-rule="evenodd" d="M478.394 609.696H578.108V600.9H478.394V609.696Z" fill="#C2C2C2"/>
<path fill-rule="evenodd" clip-rule="evenodd" d="M475.788 609.696H480.562V531.841H475.788V609.696Z" fill="#DFDFDF"/>
<path fill-rule="evenodd" clip-rule="evenodd" d="M542.291 609.696H547.122V531.841H542.291V609.696Z" fill="#DCEEFF"/>
<path fill-rule="evenodd" clip-rule="evenodd" d="M542.291 603.896H547.123V600.9H542.291V603.896Z" fill="#CCE3FF"/>
<path fill-rule="evenodd" clip-rule="evenodd" d="M558.265 432.48C559.305 441.429 555.924 449.075 555.924 449.075C555.924 449.075 550.857 442.212 549.817 433.264C548.777 424.315 552.159 416.669 552.159 416.669C552.159 416.669 557.226 423.531 558.265 432.48Z" fill="#CCE3FF"/>
<path fill-rule="evenodd" clip-rule="evenodd" d="M556.072 439.66C560.593 447.698 560.463 455.919 560.463 455.919C560.463 455.919 553.004 451.106 548.482 443.068C543.961 435.029 544.091 426.809 544.091 426.809C544.091 426.809 551.55 431.622 556.072 439.66Z" fill="#CCE3FF"/>
<path fill-rule="evenodd" clip-rule="evenodd" d="M562.436 433.44C561.28 442.377 556.124 449.187 556.124 449.187C556.124 449.187 552.842 441.506 553.998 432.568C555.155 423.631 560.311 416.823 560.311 416.823C560.311 416.823 563.592 424.503 562.436 433.44Z" fill="#CCE3FF"/>
<path fill-rule="evenodd" clip-rule="evenodd" d="M566.201 439.9C562.478 448.259 555.514 453.632 555.514 453.632C555.514 453.632 554.586 445.453 558.308 437.093C562.031 428.734 568.995 423.361 568.995 423.361C568.995 423.361 569.923 431.54 566.201 439.9Z" fill="#CCE3FF"/>
<path fill-rule="evenodd" clip-rule="evenodd" d="M546.03 442.325H567.4L565.144 459.002H548.286L546.03 442.325Z" fill="#ECF6FF"/>
<path fill-rule="evenodd" clip-rule="evenodd" d="M473.4 601.016H549.665V465.508H473.4V601.016Z" fill="#EFEFEF"/>
<path fill-rule="evenodd" clip-rule="evenodd" d="M478.394 594.195H544.672V574.104H478.394V594.195Z" fill="white"/>
<path fill-rule="evenodd" clip-rule="evenodd" d="M478.394 568.63H544.672V548.538H478.394V568.63Z" fill="white"/>
<path fill-rule="evenodd" clip-rule="evenodd" d="M478.394 543.064H544.672V522.972H478.394V543.064Z" fill="white"/>
<path fill-rule="evenodd" clip-rule="evenodd" d="M478.394 517.498H544.672V497.407H478.394V517.498Z" fill="white"/>
<path fill-rule="evenodd" clip-rule="evenodd" d="M478.394 491.933H544.672V471.841H478.394V491.933Z" fill="white"/>
<path fill-rule="evenodd" clip-rule="evenodd" d="M549.666 601.016H580.07V465.508H549.666V601.016Z" fill="#C2C2C2"/>
<path fill-rule="evenodd" clip-rule="evenodd" d="M469.599 465.507H552.844V459.035H469.599V465.507Z" fill="#DFDFDF"/>
<path fill-rule="evenodd" clip-rule="evenodd" d="M552.769 465.507H584.436V459.035H552.769V465.507Z" fill="#DFDFDF"/>
<path fill-rule="evenodd" clip-rule="evenodd" d="M507.694 481.887C507.694 483.987 509.413 485.689 511.533 485.689C513.653 485.689 515.372 483.987 515.372 481.887C515.372 479.786 513.653 478.084 511.533 478.084C509.413 478.084 507.694 479.786 507.694 481.887Z" fill="#C2C2C2"/>
<path fill-rule="evenodd" clip-rule="evenodd" d="M507.694 507.452C507.694 509.553 509.413 511.255 511.533 511.255C513.653 511.255 515.372 509.553 515.372 507.452C515.372 505.352 513.653 503.65 511.533 503.65C509.413 503.65 507.694 505.352 507.694 507.452Z" fill="#C2C2C2"/>
<path fill-rule="evenodd" clip-rule="evenodd" d="M507.694 533.018C507.694 535.118 509.413 536.82 511.533 536.82C513.653 536.82 515.372 535.118 515.372 533.018C515.372 530.918 513.653 529.215 511.533 529.215C509.413 529.215 507.694 530.918 507.694 533.018Z" fill="#C2C2C2"/>
<path fill-rule="evenodd" clip-rule="evenodd" d="M507.694 558.584C507.694 560.684 509.413 562.386 511.533 562.386C513.653 562.386 515.372 560.684 515.372 558.584C515.372 556.483 513.653 554.781 511.533 554.781C509.413 554.781 507.694 556.483 507.694 558.584Z" fill="#C2C2C2"/>
<path fill-rule="evenodd" clip-rule="evenodd" d="M507.694 584.149C507.694 586.25 509.413 587.952 511.533 587.952C513.653 587.952 515.372 586.25 515.372 584.149C515.372 582.049 513.653 580.347 511.533 580.347C509.413 580.347 507.694 582.049 507.694 584.149Z" fill="#C2C2C2"/>
<path d="M602.935 587.121C603.705 585.119 607.804 587.335 609.196 588.162C609.246 588.191 609.303 588.208 609.362 588.21C609.42 588.212 609.479 588.2 609.531 588.174C609.584 588.149 609.63 588.111 609.664 588.064C609.699 588.017 609.721 587.963 609.73 587.905L610.109 584.933L611.413 587.763C613.506 590.826 611.811 598.358 611.811 598.358C611.305 601.647 607.401 600.606 604.498 599.628C601.595 598.651 602.006 589.54 602.935 587.121Z" fill="url(#paint17_linear)"/>
<path d="M626.497 632.344C619.934 630.848 604.765 631.656 604.765 631.656L604.151 633.314L603.126 641.554C603.126 641.554 617.573 644.139 624.695 644.135C625.371 644.136 626.043 644.036 626.689 643.838C626.904 643.644 627.115 643.442 627.319 643.224C630.341 639.951 629.472 635.139 626.497 632.344Z" fill="#ABABAC"/>
<path d="M600.391 631.188L602.959 631.299C603.655 631.339 604.335 631.525 604.953 631.844C605.572 632.163 606.115 632.609 606.548 633.152C607.491 634.318 607.963 635.791 607.872 637.284C607.821 638.468 607.326 639.59 606.484 640.43C606.092 640.82 605.622 641.122 605.103 641.317C604.585 641.512 604.031 641.596 603.478 641.562L599.546 641.285L600.391 631.188Z" fill="url(#paint18_linear)"/>
<path d="M557.637 542.401C557.637 542.401 560.281 552.969 573.108 552.735C586.176 552.498 587.344 541.566 587.344 541.566L578.807 539.753L578.093 530.314L565.253 531.256L565.014 540.224L557.637 542.401Z" fill="url(#paint19_linear)"/>
<path d="M612.023 568.99C609.542 559.974 605.479 550.875 598.565 545.991C596.304 544.408 592.436 542.852 587.695 541.637C587.579 541.605 587.464 541.574 587.348 541.55C587.053 541.479 586.754 541.419 586.451 541.372L578.811 539.737L572.853 542.646L565.018 540.208C565.018 540.208 557.21 541.708 556.991 541.791C553.765 542.744 550.711 544.195 547.939 546.09C540.555 551.132 535.782 564.177 535.247 568.254C535.219 568.321 524.816 597.044 544.49 613.089L544.363 618.234L574.209 633.108L600.363 619.825L600.475 615.329C619.595 600.618 612.023 568.99 612.023 568.99Z" fill="#C29F5D"/>
<path d="M574.691 543.224H571.075V589.868H574.691V543.224Z" fill="#B48E48"/>
<path d="M580.37 537.319C580.349 537.256 580.316 537.197 580.272 537.147C580.228 537.097 580.175 537.056 580.115 537.026C580.052 536.999 579.984 536.984 579.915 536.984C579.846 536.984 579.779 536.999 579.716 537.026L573.431 539.401C573.377 539.423 573.328 539.456 573.288 539.498C573.248 539.541 573.218 539.591 573.2 539.646L572.678 541.273L572.506 539.722C572.497 539.647 572.467 539.576 572.419 539.518C572.371 539.46 572.307 539.417 572.235 539.393L563.706 536.789C563.635 536.768 563.56 536.763 563.487 536.775C563.414 536.787 563.344 536.815 563.284 536.857C563.223 536.899 563.173 536.955 563.137 537.019C563.101 537.083 563.08 537.155 563.076 537.228L562.92 540.137C562.92 540.137 568.985 544.249 572.49 544.384C575.995 544.519 581.263 540.185 581.263 540.185L580.37 537.319Z" fill="#B48E48"/>
<path d="M562.083 507.342C561.963 507.568 554.387 513.105 554.387 513.105C554.387 513.105 556.058 524.978 562.853 529.68C570.325 534.826 580.876 525.43 580.876 525.43C580.876 525.43 589.274 527.409 593.74 510.061C594.765 506.079 588.851 505.743 581.714 506.499C572.51 507.421 562.083 507.342 562.083 507.342Z" fill="#494949"/>
<path d="M567.055 505.359C567.055 505.359 552.338 533.65 569.795 540.513C582.108 545.354 589.828 521.725 587.523 515.325C583.963 505.43 581.618 506.618 581.618 506.618L567.055 505.359Z" fill="url(#paint20_linear)"/>
<path d="M591.064 502.783C598.333 504.761 592.121 520.415 581.179 516.714C570.237 513.014 565.931 513.069 564.228 516.049C562.526 519.03 562.155 529.629 558.454 524.393C554.395 518.65 552.134 507.128 557.111 503.416C561.553 500.095 562.593 494.95 567.925 495.128C575.002 495.365 580.473 492.251 583.671 494.495C587.34 497.075 585.717 501.322 591.064 502.783Z" fill="#494949"/>
<path d="M563.554 518.484C563.554 518.484 560.416 515.131 559.914 519.172C559.411 523.213 561.022 528.414 562.912 525.564C564.802 522.715 563.554 518.484 563.554 518.484Z" fill="url(#paint21_linear)"/>
<path d="M606.771 571.551C606.541 571.393 606.279 571.287 606.004 571.24C605.729 571.193 605.446 571.206 605.176 571.278L571.681 580.812L538.585 571.286C537.893 571.14 537.172 571.235 536.543 571.555C536.12 571.872 535.311 572.37 535.311 572.897V574.606L571.498 586.769L607.684 576.581V572.889C607.664 572.362 607.202 571.868 606.771 571.551Z" fill="url(#paint22_linear)"/>
<path d="M571.035 580.812L536.519 572.667C536.268 572.608 536.007 572.606 535.756 572.663C535.504 572.719 535.269 572.832 535.068 572.992C534.867 573.153 534.706 573.357 534.597 573.588C534.488 573.82 534.433 574.074 534.438 574.329L535.235 612.476C535.243 612.855 535.38 613.222 535.625 613.514C535.87 613.806 536.208 614.006 536.583 614.083L571.928 621.274L571.035 580.812Z" fill="url(#paint23_linear)"/>
<path d="M573.731 580.812L608.246 572.667C608.497 572.607 608.758 572.605 609.01 572.661C609.262 572.717 609.497 572.83 609.698 572.99C609.899 573.151 610.059 573.355 610.168 573.587C610.277 573.82 610.33 574.073 610.324 574.329L609.527 612.476C609.518 612.855 609.38 613.221 609.136 613.513C608.891 613.805 608.553 614.006 608.179 614.083L572.833 621.274L573.731 580.812Z" fill="url(#paint24_linear)"/>
<path d="M573.32 579.269H568.75C567.819 579.269 567.063 580.018 567.063 580.943V619.643C567.063 620.568 567.819 621.318 568.75 621.318H573.32C574.251 621.318 575.007 620.568 575.007 619.643V580.943C575.007 580.018 574.251 579.269 573.32 579.269Z" fill="#E1E6B1"/>
<path d="M541.83 587.121C541.061 585.119 536.966 587.335 535.57 588.162C535.519 588.19 535.461 588.205 535.403 588.205C535.344 588.205 535.286 588.19 535.235 588.162C535.182 588.137 535.136 588.099 535.102 588.052C535.067 588.005 535.044 587.951 535.036 587.893L534.657 584.921L533.353 587.751C531.264 590.814 532.954 598.346 532.954 598.346C533.461 601.635 537.368 600.594 540.271 599.616C543.174 598.639 542.76 589.54 541.83 587.121Z" fill="url(#paint25_linear)"/>
<path d="M514.041 631.553C520.641 630.258 535.781 631.525 535.781 631.525L536.356 633.199L537.153 641.471C537.153 641.471 522.65 643.612 515.533 643.391C514.854 643.372 514.182 643.252 513.539 643.034C513.328 642.833 513.14 642.639 512.925 642.405C510.006 639.037 510.999 634.256 514.041 631.553Z" fill="#ABABAC"/>
<path d="M540.152 631.192L537.58 631.224C536.881 631.239 536.193 631.402 535.563 631.702C534.933 632.003 534.376 632.433 533.927 632.966C532.955 634.105 532.446 635.562 532.5 637.054C532.523 638.24 532.989 639.376 533.808 640.24C534.188 640.642 534.65 640.96 535.164 641.171C535.678 641.382 536.231 641.481 536.786 641.463L540.722 641.309L540.152 631.192Z" fill="url(#paint26_linear)"/>
<path d="M628.332 606.503C625.357 599.703 618.08 598.587 611.883 601.781C611.775 601.92 572.534 621.883 537.931 630.63C538.903 633.813 539.439 637.11 539.526 640.434C539.544 641.168 539.532 641.892 539.49 642.607C566.027 641.253 594.829 632.471 619.575 624.749C627.263 622.279 631.633 614.039 628.332 606.503Z" fill="#BDBDBD"/>
<path d="M600.598 640.949C600.465 637.284 601.231 633.643 602.831 630.338C602.875 630.187 602.931 630.045 602.979 629.894C600.985 629.289 598.449 628.465 595.096 627.334C570.525 618.986 551.779 610.56 533.887 600.859C526.937 597.091 519.034 599.616 516.809 607.778C514.815 615.064 519.201 621.286 525.805 623.475C545.611 630.013 535.299 628.196 541.755 630.262C559.124 635.594 580.741 640.45 600.626 641.776C600.622 641.503 600.606 641.226 600.598 640.949Z" fill="#ABABAC"/>
<path fill-rule="evenodd" clip-rule="evenodd" d="M587.189 269.839L582.886 312.397H526.386L530.689 269.839H587.189Z" fill="#DCEEFF"/>
<path fill-rule="evenodd" clip-rule="evenodd" d="M587.189 269.839L582.886 312.397H526.386L530.689 269.839H587.189Z" stroke="#DCEEFF" stroke-width="5"/>
<path fill-rule="evenodd" clip-rule="evenodd" d="M585.925 269.839L581.622 312.397H524.071L528.374 269.839H585.925Z" fill="white"/>
<path fill-rule="evenodd" clip-rule="evenodd" d="M585.925 269.839L581.622 312.397H524.071L528.374 269.839H585.925Z" stroke="#DFDFDF" stroke-width="5"/>
<path fill-rule="evenodd" clip-rule="evenodd" d="M573.791 278.188L571.176 304.049H536.205L538.82 278.188H573.791Z" fill="#DFDFDF"/>
<path fill-rule="evenodd" clip-rule="evenodd" d="M468.188 313.552H475.867V283.85H468.188V313.552Z" fill="#C2C2C2"/>
<path fill-rule="evenodd" clip-rule="evenodd" d="M460.51 313.552H468.188V283.85H460.51V313.552Z" fill="#EFEFEF"/>
<path fill-rule="evenodd" clip-rule="evenodd" d="M475.867 313.552H483.545V283.85H475.867V313.552Z" fill="white"/>
<path fill-rule="evenodd" clip-rule="evenodd" d="M503.61 313.552H483.545V283.85H503.61C504.782 283.85 505.732 284.791 505.732 285.951V311.452C505.732 312.612 504.782 313.552 503.61 313.552Z" fill="#C2C2C2"/>
<path fill-rule="evenodd" clip-rule="evenodd" d="M486.833 291.119H502.444V288.177H486.833V291.119Z" fill="#CCE3FF"/>
<path fill-rule="evenodd" clip-rule="evenodd" d="M490.312 295.656H498.966V292.715H490.312V295.656Z" fill="#CCE3FF"/>
<path fill-rule="evenodd" clip-rule="evenodd" d="M424.749 320.834H599.781V313.552H424.749V320.834Z" fill="#DFDFDF"/>
<path fill-rule="evenodd" clip-rule="evenodd" d="M599.781 320.834H628.576V313.552H599.781V320.834Z" fill="#C2C2C2"/>
<path fill-rule="evenodd" clip-rule="evenodd" d="M467.409 320.834L481.078 342.07V320.834H467.409Z" fill="#C2C2C2"/>
<path fill-rule="evenodd" clip-rule="evenodd" d="M460 321L473.669 342.237H481.233L467.564 321H460Z" fill="#EFEFEF"/>
<path fill-rule="evenodd" clip-rule="evenodd" d="M567.66 320.834L581.329 342.07V320.834H567.66Z" fill="#C2C2C2"/>
<path fill-rule="evenodd" clip-rule="evenodd" d="M560 321L573.669 342.237H581.233L567.564 321H560Z" fill="#EFEFEF"/>
<path fill-rule="evenodd" clip-rule="evenodd" d="M312.44 164L308.137 206.558H251.637L255.94 164H312.44Z" fill="#DCEEFF"/>
<path fill-rule="evenodd" clip-rule="evenodd" d="M312.44 164L308.137 206.558H251.637L255.94 164H312.44Z" stroke="#DCEEFF" stroke-width="5"/>
<path fill-rule="evenodd" clip-rule="evenodd" d="M311.176 164L306.872 206.558H249.321L253.625 164H311.176Z" fill="white"/>
<path fill-rule="evenodd" clip-rule="evenodd" d="M311.176 164L306.872 206.558H249.321L253.625 164H311.176Z" stroke="#DFDFDF" stroke-width="5"/>
<path fill-rule="evenodd" clip-rule="evenodd" d="M299.042 172.349L296.427 198.21H261.456L264.071 172.349H299.042Z" fill="#DFDFDF"/>
<path fill-rule="evenodd" clip-rule="evenodd" d="M193.439 207.713H201.118V178.011H193.439V207.713Z" fill="#C2C2C2"/>
<path fill-rule="evenodd" clip-rule="evenodd" d="M185.761 207.713H193.439V178.011H185.761V207.713Z" fill="#EFEFEF"/>
<path fill-rule="evenodd" clip-rule="evenodd" d="M201.118 207.713H208.796V178.011H201.118V207.713Z" fill="white"/>
<path fill-rule="evenodd" clip-rule="evenodd" d="M228.861 207.713H208.796V178.011H228.861C230.033 178.011 230.983 178.952 230.983 180.112V205.613C230.983 206.773 230.033 207.713 228.861 207.713Z" fill="#C2C2C2"/>
<path fill-rule="evenodd" clip-rule="evenodd" d="M212.084 185.28H227.695V182.338H212.084V185.28Z" fill="#CCE3FF"/>
<path fill-rule="evenodd" clip-rule="evenodd" d="M215.562 189.817H224.216V186.876H215.562V189.817Z" fill="#CCE3FF"/>
<path fill-rule="evenodd" clip-rule="evenodd" d="M150 214.995H325.032V207.713H150V214.995Z" fill="#DFDFDF"/>
<path fill-rule="evenodd" clip-rule="evenodd" d="M325.032 214.995H353.827V207.713H325.032V214.995Z" fill="#C2C2C2"/>
<path fill-rule="evenodd" clip-rule="evenodd" d="M192.66 214.995L206.329 236.231V214.995H192.66Z" fill="#C2C2C2"/>
<path fill-rule="evenodd" clip-rule="evenodd" d="M185.251 215.161L198.92 236.398H206.484L192.815 215.161H185.251Z" fill="#EFEFEF"/>
<path fill-rule="evenodd" clip-rule="evenodd" d="M292.911 214.995L306.58 236.231V214.995H292.911Z" fill="#C2C2C2"/>
<path fill-rule="evenodd" clip-rule="evenodd" d="M285.251 215.161L298.92 236.398H306.484L292.815 215.161H285.251Z" fill="#EFEFEF"/>
<defs>
<linearGradient id="paint0_linear" x1="1.41852e+06" y1="118489" x2="1.39921e+06" y2="128722" gradientUnits="userSpaceOnUse">
<stop stop-color="#FFE8B6"/>
<stop offset="1" stop-color="#FFE9B8"/>
</linearGradient>
<linearGradient id="paint1_linear" x1="218211" y1="6520.78" x2="215951" y2="11852.8" gradientUnits="userSpaceOnUse">
<stop stop-color="#BDBDBD"/>
<stop offset="1" stop-color="#BDBDBD"/>
</linearGradient>
<linearGradient id="paint2_linear" x1="1.18829e+06" y1="135495" x2="1.25092e+06" y2="108142" gradientUnits="userSpaceOnUse">
<stop stop-color="#FFE8B7"/>
<stop offset="1" stop-color="#FFE3A5"/>
</linearGradient>
<linearGradient id="paint3_linear" x1="206813" y1="-45432.2" x2="203011" y2="-39666.5" gradientUnits="userSpaceOnUse">
<stop stop-color="#FBFBFF"/>
<stop offset="1" stop-color="#BDBDBD"/>
</linearGradient>
<linearGradient id="paint4_linear" x1="120693" y1="111705" x2="116495" y2="137664" gradientUnits="userSpaceOnUse">
<stop stop-color="#F78000"/>
<stop offset="1" stop-color="#A977FF"/>
</linearGradient>
<linearGradient id="paint5_linear" x1="36520.1" y1="54889.8" x2="20594.7" y2="66315.6" gradientUnits="userSpaceOnUse">
<stop stop-color="#FBFFD0"/>
<stop offset="1" stop-color="#1A0F91"/>
</linearGradient>
<linearGradient id="paint6_linear" x1="26111" y1="21092.5" x2="28683" y2="21092.5" gradientUnits="userSpaceOnUse">
<stop stop-color="#DAE3FE"/>
<stop offset="1" stop-color="#E9EFFD"/>
</linearGradient>
<linearGradient id="paint7_linear" x1="49093.2" y1="45762" x2="35962.1" y2="61874.3" gradientUnits="userSpaceOnUse">
<stop stop-color="#FBFFD0"/>
<stop offset="1" stop-color="#1A0F91"/>
</linearGradient>
<linearGradient id="paint8_linear" x1="4834.42" y1="6371.87" x2="4669.99" y2="6512.86" gradientUnits="userSpaceOnUse">
<stop stop-color="#FBFFD0"/>
<stop offset="1" stop-color="#1A0F91"/>
</linearGradient>
<linearGradient id="paint9_linear" x1="584663" y1="20212.4" x2="569207" y2="20212.4" gradientUnits="userSpaceOnUse">
<stop stop-color="#FFF0D0"/>
<stop offset="1" stop-color="#FFE6AE"/>
</linearGradient>
<linearGradient id="paint10_linear" x1="191274" y1="21013.8" x2="191095" y2="19193.1" gradientUnits="userSpaceOnUse">
<stop stop-color="#FF928E"/>
<stop offset="1" stop-color="#FEB3B1"/>
</linearGradient>
<linearGradient id="paint11_linear" x1="180208" y1="134827" x2="182060" y2="130261" gradientUnits="userSpaceOnUse">
<stop stop-color="#FFF2D8"/>
<stop offset="1" stop-color="#F9DEA6"/>
</linearGradient>
<linearGradient id="paint12_linear" x1="177165" y1="-137029" x2="174818" y2="-130120" gradientUnits="userSpaceOnUse">
<stop stop-color="#BDBDBD"/>
<stop offset="1" stop-color="#BDBDBD"/>
</linearGradient>
<linearGradient id="paint13_linear" x1="45575" y1="28832.6" x2="45958" y2="27501.2" gradientUnits="userSpaceOnUse">
<stop stop-color="#FF928E"/>
<stop offset="1" stop-color="#FEB3B1"/>
</linearGradient>
<linearGradient id="paint14_linear" x1="15169.1" y1="22909" x2="16273.8" y2="22909" gradientUnits="userSpaceOnUse">
<stop stop-color="#4042E2"/>
<stop offset="1" stop-color="#4F52FF"/>
</linearGradient>
<linearGradient id="paint15_linear" x1="11792.8" y1="10847.7" x2="12437.4" y2="10847.7" gradientUnits="userSpaceOnUse">
<stop stop-color="#4042E2"/>
<stop offset="1" stop-color="#4F52FF"/>
</linearGradient>
<linearGradient id="paint16_linear" x1="11324" y1="6281.58" x2="11897.5" y2="6281.58" gradientUnits="userSpaceOnUse">
<stop stop-color="#4042E2"/>
<stop offset="1" stop-color="#4F52FF"/>
</linearGradient>
<linearGradient id="paint17_linear" x1="-7525.15" y1="22303.4" x2="-7291.15" y2="21914.5" gradientUnits="userSpaceOnUse">
<stop stop-color="#FF928E"/>
<stop offset="1" stop-color="#FEB3B1"/>
</linearGradient>
<linearGradient id="paint18_linear" x1="16339" y1="14843.4" x2="15467.3" y2="16739.6" gradientUnits="userSpaceOnUse">
<stop stop-color="#FFE5AE"/>
<stop offset="1" stop-color="#FFE5AE"/>
</linearGradient>
<linearGradient id="paint19_linear" x1="53044.7" y1="30130.4" x2="53016.6" y2="26894.6" gradientUnits="userSpaceOnUse">
<stop stop-color="#FF928E"/>
<stop offset="1" stop-color="#FEB3B1"/>
</linearGradient>
<linearGradient id="paint20_linear" x1="47949.1" y1="26595.3" x2="48910.9" y2="22202.1" gradientUnits="userSpaceOnUse">
<stop stop-color="#F8DEA5"/>
<stop offset="1" stop-color="#FFE6AE"/>
</linearGradient>
<linearGradient id="paint21_linear" x1="8654.39" y1="15693.1" x2="8580.29" y2="13888.5" gradientUnits="userSpaceOnUse">
<stop stop-color="#FFE5AE"/>
<stop offset="1" stop-color="#F4DAA1"/>
</linearGradient>
<linearGradient id="paint22_linear" x1="121597" y1="21473.8" x2="134733" y2="21473.8" gradientUnits="userSpaceOnUse">
<stop stop-color="#DAE3FE"/>
<stop offset="1" stop-color="#E9EFFD"/>
</linearGradient>
<linearGradient id="paint23_linear" x1="65005.2" y1="64227" x2="64514.2" y2="79557.3" gradientUnits="userSpaceOnUse">
<stop stop-color="#FBFFD0"/>
<stop offset="1" stop-color="#1A0F91"/>
</linearGradient>
<linearGradient id="paint24_linear" x1="-31229" y1="64228.8" x2="-30737.9" y2="79559.5" gradientUnits="userSpaceOnUse">
<stop stop-color="#FBFFD0"/>
<stop offset="1" stop-color="#1A0F91"/>
</linearGradient>
<linearGradient id="paint25_linear" x1="17701.8" y1="22303.4" x2="17468" y2="21914.4" gradientUnits="userSpaceOnUse">
<stop stop-color="#FFE5AE"/>
<stop offset="1" stop-color="#FFE5AE"/>
</linearGradient>
<linearGradient id="paint26_linear" x1="14877.6" y1="14092.4" x2="14012.9" y2="15967.9" gradientUnits="userSpaceOnUse">
<stop stop-color="#FFE5AE"/>
<stop offset="0.0001" stop-color="#FFE5AE"/>
<stop offset="1" stop-color="#FFE5AE"/>
</linearGradient>
</defs>
</svg>
